<mxfile host="app.diagrams.net" agent="Mozilla/5.0 (Windows NT 10.0; Win64; x64) AppleWebKit/537.36 (KHTML, like Gecko) Chrome/140.0.0.0 Safari/537.36" version="28.2.3">
  <diagram name="Page-1" id="pEPi_JN1sJmoPVMVXcNB">
    <mxGraphModel dx="453" dy="232" grid="1" gridSize="10" guides="1" tooltips="1" connect="1" arrows="1" fold="1" page="1" pageScale="1" pageWidth="850" pageHeight="1100" math="0" shadow="0">
      <root>
        <mxCell id="0" />
        <mxCell id="1" parent="0" />
        <mxCell id="ps-ontqsnGCl3ai26Atb-1" value="OSR 8x" style="rounded=0;whiteSpace=wrap;html=1;" vertex="1" parent="1">
          <mxGeometry x="360" y="240" width="40" height="40" as="geometry" />
        </mxCell>
        <mxCell id="ps-ontqsnGCl3ai26Atb-2" value="" style="endArrow=classic;html=1;rounded=0;" edge="1" parent="1">
          <mxGeometry width="50" height="50" relative="1" as="geometry">
            <mxPoint x="320" y="250" as="sourcePoint" />
            <mxPoint x="360" y="250" as="targetPoint" />
          </mxGeometry>
        </mxCell>
        <mxCell id="ps-ontqsnGCl3ai26Atb-3" value="" style="endArrow=classic;html=1;rounded=0;" edge="1" parent="1">
          <mxGeometry width="50" height="50" relative="1" as="geometry">
            <mxPoint x="320" y="270" as="sourcePoint" />
            <mxPoint x="360" y="270" as="targetPoint" />
          </mxGeometry>
        </mxCell>
        <mxCell id="ps-ontqsnGCl3ai26Atb-4" value="I" style="text;html=1;align=center;verticalAlign=middle;whiteSpace=wrap;rounded=0;" vertex="1" parent="1">
          <mxGeometry x="300" y="240" width="20" height="20" as="geometry" />
        </mxCell>
        <mxCell id="ps-ontqsnGCl3ai26Atb-5" value="I" style="text;html=1;align=center;verticalAlign=middle;whiteSpace=wrap;rounded=0;" vertex="1" parent="1">
          <mxGeometry x="300" y="240" width="20" height="20" as="geometry" />
        </mxCell>
        <mxCell id="ps-ontqsnGCl3ai26Atb-6" value="Q" style="text;html=1;align=center;verticalAlign=middle;whiteSpace=wrap;rounded=0;" vertex="1" parent="1">
          <mxGeometry x="300" y="260" width="20" height="20" as="geometry" />
        </mxCell>
        <mxCell id="ps-ontqsnGCl3ai26Atb-7" value="fs1" style="text;html=1;align=center;verticalAlign=middle;whiteSpace=wrap;rounded=0;" vertex="1" parent="1">
          <mxGeometry x="320" y="220" width="20" height="20" as="geometry" />
        </mxCell>
        <mxCell id="ps-ontqsnGCl3ai26Atb-8" value="" style="endArrow=classic;html=1;rounded=0;" edge="1" parent="1">
          <mxGeometry width="50" height="50" relative="1" as="geometry">
            <mxPoint x="400" y="249.78" as="sourcePoint" />
            <mxPoint x="440" y="249.78" as="targetPoint" />
          </mxGeometry>
        </mxCell>
        <mxCell id="ps-ontqsnGCl3ai26Atb-9" value="" style="endArrow=classic;html=1;rounded=0;" edge="1" parent="1">
          <mxGeometry width="50" height="50" relative="1" as="geometry">
            <mxPoint x="400" y="269.78" as="sourcePoint" />
            <mxPoint x="440" y="269.78" as="targetPoint" />
          </mxGeometry>
        </mxCell>
        <mxCell id="ps-ontqsnGCl3ai26Atb-13" value="Delay" style="rounded=0;whiteSpace=wrap;html=1;" vertex="1" parent="1">
          <mxGeometry x="440" y="240" width="40" height="40" as="geometry" />
        </mxCell>
        <mxCell id="ps-ontqsnGCl3ai26Atb-14" value="" style="endArrow=classic;html=1;rounded=0;" edge="1" parent="1">
          <mxGeometry width="50" height="50" relative="1" as="geometry">
            <mxPoint x="480" y="249.77999999999997" as="sourcePoint" />
            <mxPoint x="520" y="249.77999999999997" as="targetPoint" />
          </mxGeometry>
        </mxCell>
        <mxCell id="ps-ontqsnGCl3ai26Atb-15" value="" style="endArrow=classic;html=1;rounded=0;" edge="1" parent="1">
          <mxGeometry width="50" height="50" relative="1" as="geometry">
            <mxPoint x="480" y="269.78" as="sourcePoint" />
            <mxPoint x="520" y="269.78" as="targetPoint" />
          </mxGeometry>
        </mxCell>
        <mxCell id="ps-ontqsnGCl3ai26Atb-16" value="Delta&lt;div&gt;Sigma&lt;/div&gt;" style="rounded=0;whiteSpace=wrap;html=1;" vertex="1" parent="1">
          <mxGeometry x="520" y="240" width="40" height="40" as="geometry" />
        </mxCell>
        <mxCell id="ps-ontqsnGCl3ai26Atb-17" value="" style="endArrow=classic;html=1;rounded=0;" edge="1" parent="1">
          <mxGeometry width="50" height="50" relative="1" as="geometry">
            <mxPoint x="560" y="249.77999999999997" as="sourcePoint" />
            <mxPoint x="600" y="249.77999999999997" as="targetPoint" />
          </mxGeometry>
        </mxCell>
        <mxCell id="ps-ontqsnGCl3ai26Atb-18" value="" style="endArrow=classic;html=1;rounded=0;" edge="1" parent="1">
          <mxGeometry width="50" height="50" relative="1" as="geometry">
            <mxPoint x="560" y="269.78" as="sourcePoint" />
            <mxPoint x="600" y="269.78" as="targetPoint" />
          </mxGeometry>
        </mxCell>
        <mxCell id="ps-ontqsnGCl3ai26Atb-19" value="LUT" style="rounded=0;whiteSpace=wrap;html=1;" vertex="1" parent="1">
          <mxGeometry x="600" y="240" width="40" height="40" as="geometry" />
        </mxCell>
        <mxCell id="ps-ontqsnGCl3ai26Atb-20" value="" style="endArrow=classic;html=1;rounded=0;" edge="1" parent="1">
          <mxGeometry width="50" height="50" relative="1" as="geometry">
            <mxPoint x="640" y="249.77999999999997" as="sourcePoint" />
            <mxPoint x="680" y="249.77999999999997" as="targetPoint" />
          </mxGeometry>
        </mxCell>
        <mxCell id="ps-ontqsnGCl3ai26Atb-21" value="" style="endArrow=classic;html=1;rounded=0;" edge="1" parent="1">
          <mxGeometry width="50" height="50" relative="1" as="geometry">
            <mxPoint x="640" y="269.78" as="sourcePoint" />
            <mxPoint x="680" y="269.78" as="targetPoint" />
          </mxGeometry>
        </mxCell>
        <mxCell id="ps-ontqsnGCl3ai26Atb-22" value="Rec" style="rounded=0;whiteSpace=wrap;html=1;" vertex="1" parent="1">
          <mxGeometry x="680" y="240" width="40" height="40" as="geometry" />
        </mxCell>
        <mxCell id="ps-ontqsnGCl3ai26Atb-23" value="fs2" style="text;html=1;align=center;verticalAlign=middle;whiteSpace=wrap;rounded=0;" vertex="1" parent="1">
          <mxGeometry x="405" y="220" width="20" height="20" as="geometry" />
        </mxCell>
        <mxCell id="ps-ontqsnGCl3ai26Atb-24" value="fs2" style="text;html=1;align=center;verticalAlign=middle;whiteSpace=wrap;rounded=0;" vertex="1" parent="1">
          <mxGeometry x="490" y="220" width="20" height="20" as="geometry" />
        </mxCell>
        <mxCell id="ps-ontqsnGCl3ai26Atb-25" value="fs2" style="text;html=1;align=center;verticalAlign=middle;whiteSpace=wrap;rounded=0;" vertex="1" parent="1">
          <mxGeometry x="570" y="220" width="20" height="20" as="geometry" />
        </mxCell>
        <mxCell id="ps-ontqsnGCl3ai26Atb-26" value="fs3" style="text;html=1;align=center;verticalAlign=middle;whiteSpace=wrap;rounded=0;" vertex="1" parent="1">
          <mxGeometry x="650" y="220" width="20" height="20" as="geometry" />
        </mxCell>
        <mxCell id="ps-ontqsnGCl3ai26Atb-27" value="fs4" style="text;html=1;align=center;verticalAlign=middle;whiteSpace=wrap;rounded=0;" vertex="1" parent="1">
          <mxGeometry x="730" y="220" width="20" height="20" as="geometry" />
        </mxCell>
        <mxCell id="ps-ontqsnGCl3ai26Atb-28" value="" style="endArrow=classic;html=1;rounded=0;" edge="1" parent="1">
          <mxGeometry width="50" height="50" relative="1" as="geometry">
            <mxPoint x="720" y="259.57" as="sourcePoint" />
            <mxPoint x="760" y="259.57" as="targetPoint" />
          </mxGeometry>
        </mxCell>
      </root>
    </mxGraphModel>
  </diagram>
</mxfile>
